<svg id="svg" version="1.1" xmlns="http://www.w3.org/2000/svg" xmlns:xlink="http://www.w3.org/1999/xlink" width="400" height="400" viewBox="0, 0, 400,400"><g id="svgg"><path id="path0" d="M184.211 39.472 C 182.677 39.565,181.327 39.775,181.211 39.939 C 181.095 40.103,179.200 40.459,177.000 40.730 C 167.496 41.900,150.334 47.122,147.200 49.797 C 146.870 50.078,144.620 51.425,142.200 52.791 C 137.169 55.628,132.036 59.208,131.297 60.393 C 131.020 60.837,130.527 61.200,130.201 61.200 C 128.653 61.200,113.851 77.247,111.998 80.934 C 111.685 81.558,111.026 82.503,110.534 83.034 C 108.384 85.354,101.675 97.407,101.050 100.072 C 100.912 100.662,100.534 101.408,100.211 101.731 C 97.992 103.951,92.516 122.631,90.987 133.200 C 90.621 135.730,90.162 138.108,89.967 138.485 C 88.665 141.000,88.710 168.679,90.016 169.133 C 90.227 169.207,90.400 169.790,90.400 170.431 C 90.400 175.673,97.229 199.494,99.623 202.600 C 99.792 202.820,101.089 205.263,102.505 208.028 C 108.973 220.663,123.376 236.294,130.629 238.551 C 131.086 238.693,131.825 239.151,132.273 239.568 C 133.209 240.440,135.666 241.746,138.716 242.993 L 140.831 243.858 137.195 244.558 C 127.982 246.330,109.316 243.590,106.400 240.036 C 106.290 239.902,105.030 239.085,103.600 238.221 C 102.170 237.356,100.940 236.503,100.867 236.324 C 100.793 236.146,100.515 236.000,100.248 236.000 C 99.981 236.000,99.094 235.315,98.277 234.479 L 96.792 232.958 97.996 231.804 C 98.658 231.169,99.200 230.454,99.200 230.214 C 99.200 229.974,99.553 229.476,99.984 229.107 C 102.479 226.970,102.499 215.233,100.010 213.200 C 99.876 213.090,99.246 211.960,98.612 210.689 C 91.689 196.823,69.964 196.919,62.600 210.848 C 61.975 212.032,61.193 213.540,60.863 214.200 C 60.533 214.860,60.119 215.497,59.943 215.616 C 56.793 217.749,56.655 238.986,59.759 243.800 C 60.043 244.240,60.956 246.130,61.788 248.000 C 65.703 256.800,73.409 265.073,81.000 268.626 C 82.320 269.243,83.626 269.974,83.902 270.248 C 84.179 270.523,84.781 270.867,85.242 271.013 C 85.918 271.228,85.400 271.609,82.539 273.003 C 77.871 275.276,76.181 276.557,73.215 280.071 C 71.855 281.682,70.420 283.360,70.026 283.800 C 66.333 287.930,64.679 297.864,66.724 303.642 C 67.617 306.168,69.408 309.200,70.005 309.200 C 70.222 309.200,70.400 309.455,70.400 309.766 C 70.400 312.894,80.293 317.183,87.536 317.194 L 91.271 317.200 90.211 318.460 C 80.520 329.977,86.814 350.100,101.467 354.449 C 117.165 359.107,135.953 350.624,136.153 338.788 L 136.200 336.000 137.800 335.992 C 143.639 335.963,157.600 331.798,157.600 330.086 C 157.600 329.919,158.275 329.431,159.100 329.002 C 161.606 327.700,164.838 325.064,168.100 321.661 C 169.805 319.883,171.200 318.484,171.200 318.554 C 171.200 318.989,170.217 321.435,169.976 321.600 C 169.815 321.710,168.379 324.410,166.783 327.600 C 165.188 330.790,163.527 333.997,163.093 334.726 L 162.303 336.052 161.543 334.802 C 158.667 330.073,152.661 332.856,150.756 339.800 C 150.515 340.680,150.123 341.521,149.886 341.669 C 149.635 341.825,149.380 343.872,149.278 346.545 L 149.101 351.152 150.538 354.099 C 153.667 360.518,158.065 362.917,166.800 362.972 C 180.015 363.053,191.708 354.993,198.258 341.287 C 199.069 339.589,199.840 338.110,199.972 338.000 C 201.403 336.802,205.211 326.109,206.581 319.442 L 207.476 315.084 208.606 318.242 C 209.227 319.979,209.875 321.587,210.046 321.815 C 210.217 322.044,211.192 324.474,212.213 327.215 C 214.436 333.184,217.403 339.971,218.792 342.264 C 222.811 348.898,227.477 354.729,229.898 356.141 C 231.479 357.063,235.403 359.808,235.526 360.077 C 235.595 360.229,236.405 360.714,237.326 361.154 C 252.381 368.357,272.228 363.880,277.869 352.007 C 279.931 347.668,279.502 340.581,276.969 337.165 L 275.958 335.800 277.679 335.477 C 279.611 335.114,283.731 334.166,285.100 333.768 C 285.920 333.530,286.000 333.640,286.000 335.015 C 286.000 339.696,295.792 349.600,300.420 349.600 C 300.813 349.600,301.193 349.780,301.267 350.001 C 301.618 351.053,315.299 351.094,315.984 350.045 C 316.103 349.863,317.190 349.477,318.400 349.187 C 324.068 347.830,330.450 343.766,333.143 339.800 C 343.581 324.428,336.590 300.756,320.019 295.359 L 317.438 294.519 319.208 293.359 C 321.726 291.710,323.043 290.212,324.572 287.254 L 325.268 285.909 326.277 288.054 C 327.772 291.233,328.066 292.400,327.372 292.400 C 326.167 292.400,326.876 293.191,328.500 293.658 C 338.532 296.543,349.753 289.314,354.048 277.200 C 356.763 269.544,354.473 258.121,349.156 252.800 C 348.387 252.030,347.497 251.029,347.179 250.576 C 344.108 246.206,335.380 242.589,328.000 242.629 C 319.072 242.677,315.206 245.019,304.334 256.970 C 296.462 265.624,286.718 267.987,275.139 264.051 L 273.131 263.368 276.866 262.669 C 280.914 261.911,286.478 260.407,286.800 259.984 C 286.910 259.839,288.206 259.334,289.681 258.861 C 295.925 256.860,305.135 252.067,307.903 249.379 C 308.684 248.620,309.561 248.000,309.851 248.000 C 310.332 248.000,316.881 241.685,319.800 238.408 C 323.220 234.566,327.037 228.016,329.009 222.600 C 329.410 221.500,329.866 220.420,330.022 220.200 C 332.817 216.267,332.021 202.104,328.627 195.400 C 324.306 186.863,322.476 184.923,314.800 180.742 C 306.542 176.245,297.973 177.657,290.643 184.721 C 283.384 191.718,281.844 206.804,287.815 212.414 C 290.335 214.781,294.924 213.268,295.464 209.891 C 295.633 208.832,295.820 208.505,296.050 208.868 C 297.124 210.562,295.721 214.712,293.000 217.891 C 292.230 218.791,291.600 219.719,291.600 219.953 C 291.600 220.188,291.092 220.642,290.471 220.963 C 289.850 221.284,289.090 221.850,288.783 222.221 C 286.499 224.972,274.886 230.906,268.098 232.791 C 264.397 233.818,256.170 235.600,255.129 235.600 C 254.979 235.600,256.842 233.665,259.269 231.300 C 263.575 227.105,269.200 220.514,269.200 219.664 C 269.200 219.431,269.452 219.096,269.761 218.920 C 271.643 217.847,279.860 201.550,282.326 194.000 C 289.319 172.586,291.183 144.000,286.942 123.200 C 285.399 115.632,280.906 102.000,279.955 102.000 C 279.760 102.000,279.600 101.723,279.600 101.385 C 279.600 99.929,272.057 86.270,270.000 84.000 C 269.501 83.450,268.461 82.010,267.688 80.800 C 265.959 78.093,263.373 74.903,260.555 72.000 C 255.085 66.365,252.431 63.830,250.400 62.300 C 249.190 61.388,247.683 60.129,247.051 59.502 C 245.869 58.330,242.390 55.865,239.969 54.482 C 233.761 50.938,232.526 50.210,232.000 49.786 C 228.168 46.699,207.331 40.403,200.933 40.401 C 200.237 40.400,199.607 40.232,199.533 40.028 C 199.383 39.609,188.490 39.214,184.211 39.472 M202.600 44.797 C 250.797 52.829,287.297 99.601,285.012 150.400 C 283.097 192.963,270.264 220.567,244.521 237.494 C 239.817 240.588,239.055 241.534,240.226 242.829 C 241.161 243.862,241.770 243.805,244.168 242.459 C 245.679 241.611,246.987 241.249,249.271 241.045 C 269.772 239.220,288.644 231.285,296.616 221.139 C 301.863 214.460,302.490 207.197,298.090 204.064 C 295.024 201.881,291.200 204.183,291.200 208.211 C 291.200 209.686,290.499 209.091,289.363 206.651 C 287.425 202.489,288.347 196.056,291.675 190.515 C 298.287 179.510,313.194 180.375,321.870 192.269 C 336.540 212.379,320.009 243.179,288.203 254.998 C 281.681 257.421,263.965 261.018,260.096 260.704 L 257.992 260.533 260.296 262.074 C 268.984 267.881,278.947 270.789,288.400 270.279 C 297.103 269.808,300.027 268.118,310.400 257.562 C 318.562 249.255,320.390 248.010,325.766 247.089 C 335.363 245.445,347.442 254.156,350.171 264.690 C 353.566 277.789,341.855 291.710,329.640 289.094 L 327.081 288.546 328.347 288.022 C 333.064 286.068,336.070 278.687,333.900 274.385 C 331.851 270.323,326.852 272.181,324.113 278.023 C 323.654 279.000,322.569 281.342,321.700 283.226 C 316.958 293.516,302.732 296.345,282.826 290.956 C 276.946 289.364,265.381 284.463,264.627 283.243 C 264.498 283.035,263.179 282.192,261.696 281.369 C 258.189 279.424,250.545 274.240,247.031 271.423 C 243.677 268.735,243.825 268.593,245.173 273.202 C 249.270 287.211,259.895 302.690,268.358 306.979 C 274.229 309.954,280.804 309.118,293.100 303.831 C 303.889 299.193,309.626 297.848,314.726 298.759 C 330.133 301.512,338.449 320.707,330.535 335.249 C 326.002 343.577,310.513 348.829,301.109 345.227 C 295.878 343.223,287.052 333.873,291.429 334.971 C 301.131 337.406,307.867 334.908,309.833 328.147 C 312.304 319.646,304.552 317.912,293.862 324.574 C 280.583 332.851,268.638 333.502,258.107 326.523 C 246.129 318.587,233.316 297.592,228.614 278.200 C 226.795 270.699,226.636 270.862,227.433 279.414 C 230.968 317.374,235.007 329.057,247.971 338.823 C 257.683 346.140,268.391 345.336,268.399 337.290 L 268.400 335.579 269.500 336.157 C 278.027 340.632,276.391 352.367,266.572 357.154 C 250.738 364.874,232.701 358.113,223.154 340.879 C 219.891 334.989,211.600 314.974,211.600 312.987 C 211.600 312.659,210.955 310.278,210.166 307.695 C 208.489 302.207,206.635 293.555,205.939 287.978 C 205.235 282.339,204.801 283.455,204.794 290.924 C 204.773 314.287,201.241 328.702,191.796 343.971 C 180.742 361.842,153.600 364.346,153.600 347.496 C 153.600 344.424,154.735 340.450,156.242 338.244 L 157.305 336.688 157.805 337.878 C 160.224 343.629,164.741 341.539,169.644 332.400 C 178.965 315.027,182.464 300.553,182.362 279.800 C 182.318 270.954,181.880 267.840,181.461 273.400 C 178.418 313.822,154.547 338.735,127.517 329.699 C 120.132 327.230,116.280 327.458,114.387 330.476 C 112.649 333.246,114.258 337.053,117.583 338.037 C 121.581 339.219,125.594 334.534,123.195 331.485 L 122.391 330.462 123.895 330.877 C 134.300 333.745,134.756 342.396,124.776 347.588 C 108.542 356.034,91.227 348.991,90.488 333.641 C 89.817 319.710,99.621 312.670,116.710 314.814 C 128.003 316.231,133.373 315.647,140.372 312.241 C 151.946 306.608,160.806 294.192,163.952 279.196 C 165.586 271.406,165.420 268.611,163.626 273.700 C 161.220 280.522,158.527 286.419,157.083 288.029 C 156.597 288.571,155.125 290.271,153.810 291.807 C 145.213 301.856,135.910 306.590,124.800 306.572 C 118.313 306.561,117.593 306.377,109.600 302.683 C 102.118 299.227,98.819 298.767,96.965 300.922 C 94.950 303.265,96.197 305.611,99.929 306.497 C 102.424 307.090,102.429 307.120,100.350 308.998 C 93.657 315.044,79.717 313.847,73.880 306.723 C 63.438 293.981,78.352 273.835,98.200 273.871 C 103.409 273.880,106.101 274.618,112.800 277.870 C 122.916 282.780,126.199 283.091,133.144 279.795 C 138.798 277.111,148.632 268.118,151.764 262.766 L 152.528 261.460 150.564 262.561 C 145.116 265.615,133.124 269.749,126.000 271.030 C 91.365 277.254,61.882 258.122,61.846 229.400 C 61.823 211.044,75.321 199.503,88.600 206.523 C 95.751 210.303,99.725 221.021,96.204 227.029 C 94.910 229.237,94.400 229.002,94.400 226.199 C 94.400 223.216,93.204 221.760,91.082 222.158 C 85.574 223.191,88.880 233.066,96.841 239.361 C 110.308 250.010,132.875 253.141,147.625 246.408 C 148.438 246.037,149.156 246.070,151.083 246.570 C 155.198 247.636,156.800 247.303,156.800 245.382 C 156.800 244.072,155.701 243.411,152.200 242.619 C 132.194 238.087,115.703 224.554,105.580 204.360 C 100.123 193.474,97.530 185.487,94.413 169.968 C 88.365 139.849,101.569 97.207,124.602 72.470 C 144.282 51.335,175.459 40.273,202.600 44.797 M226.937 199.400 C 226.939 201.160,227.009 201.830,227.093 200.889 C 227.178 199.949,227.177 198.509,227.091 197.689 C 227.005 196.870,226.936 197.640,226.937 199.400 M154.946 200.600 C 154.947 202.800,155.014 203.649,155.095 202.487 C 155.176 201.324,155.176 199.524,155.093 198.487 C 155.011 197.449,154.945 198.400,154.946 200.600 M169.334 200.400 C 169.334 202.050,169.405 202.725,169.491 201.900 C 169.578 201.075,169.578 199.725,169.491 198.900 C 169.405 198.075,169.334 198.750,169.334 200.400 M179.300 208.276 C 179.685 208.376,180.315 208.376,180.700 208.276 C 181.085 208.175,180.770 208.093,180.000 208.093 C 179.230 208.093,178.915 208.175,179.300 208.276 M158.087 215.500 C 157.130 216.435,157.114 216.481,157.981 215.806 C 159.688 214.476,159.769 214.400,159.486 214.400 C 159.336 214.400,158.706 214.895,158.087 215.500 M162.305 218.283 C 162.802 218.379,163.522 218.375,163.905 218.275 C 164.287 218.175,163.880 218.096,163.000 218.101 C 162.120 218.105,161.807 218.187,162.305 218.283 M150.131 224.200 C 150.133 225.740,150.205 226.321,150.292 225.491 C 150.379 224.661,150.377 223.401,150.289 222.691 C 150.200 221.981,150.129 222.660,150.131 224.200 M198.649 223.100 C 199.025 224.670,199.200 224.723,199.200 223.267 C 199.200 222.570,199.017 222.000,198.792 222.000 C 198.550 222.000,198.492 222.447,198.649 223.100 M157.709 226.000 C 157.709 226.990,157.787 227.395,157.882 226.900 C 157.978 226.405,157.978 225.595,157.882 225.100 C 157.787 224.605,157.709 225.010,157.709 226.000 M193.775 230.100 L 192.600 231.400 193.900 230.225 C 195.112 229.130,195.384 228.800,195.075 228.800 C 195.006 228.800,194.421 229.385,193.775 230.100 M173.314 231.400 C 173.317 232.500,173.395 232.903,173.487 232.295 C 173.579 231.686,173.577 230.786,173.482 230.295 C 173.387 229.803,173.311 230.300,173.314 231.400 M158.600 233.945 C 159.480 234.892,160.740 236.041,161.400 236.498 C 162.799 237.467,162.617 237.274,159.400 234.381 C 157.365 232.551,157.243 232.485,158.600 233.945 M187.105 237.883 C 187.602 237.979,188.322 237.975,188.705 237.875 C 189.087 237.775,188.680 237.696,187.800 237.701 C 186.920 237.705,186.607 237.787,187.105 237.883 M170.505 244.687 C 171.114 244.779,172.014 244.777,172.505 244.682 C 172.997 244.587,172.500 244.511,171.400 244.514 C 170.300 244.517,169.897 244.595,170.505 244.687 M204.049 270.400 C 203.968 273.629,204.512 280.000,204.868 280.000 C 205.229 280.000,204.908 273.548,204.390 270.400 L 204.094 268.600 204.049 270.400 M133.024 274.612 C 130.393 276.603,124.587 277.677,121.805 276.689 L 120.209 276.123 124.005 275.636 C 126.092 275.368,128.880 274.908,130.200 274.615 C 133.494 273.883,133.988 273.883,133.024 274.612 M330.800 277.660 C 330.800 279.284,327.180 284.513,326.516 283.849 C 326.266 283.599,328.400 278.690,329.102 277.900 C 329.806 277.108,330.800 276.967,330.800 277.660 M262.400 287.071 C 273.424 293.018,282.316 296.105,291.028 297.009 C 294.996 297.420,295.266 297.718,292.639 298.784 C 291.408 299.284,290.400 299.808,290.400 299.949 C 290.400 300.089,289.815 300.406,289.100 300.654 C 288.385 300.901,286.180 301.701,284.200 302.432 C 274.811 305.897,269.597 304.223,262.470 295.456 C 261.243 293.947,259.735 292.173,259.119 291.514 C 258.504 290.855,258.000 290.158,258.000 289.965 C 258.000 289.772,257.299 288.469,256.443 287.070 C 255.586 285.670,254.579 283.933,254.204 283.208 L 253.523 281.891 254.661 282.701 C 255.288 283.147,258.770 285.113,262.400 287.071 M111.400 308.252 L 114.600 309.565 110.257 309.583 C 106.457 309.598,105.945 309.521,106.157 308.967 C 106.291 308.619,106.400 307.803,106.400 307.153 C 106.400 306.051,106.461 306.004,107.300 306.456 C 107.795 306.722,109.640 307.530,111.400 308.252 M237.412 310.823 C 237.975 311.935,238.923 313.362,239.518 313.993 C 240.113 314.624,241.590 316.449,242.800 318.050 C 245.316 321.377,249.156 325.600,249.667 325.600 C 250.039 325.600,254.154 328.840,255.297 330.033 C 256.057 330.826,261.239 333.394,262.942 333.821 C 263.831 334.044,264.000 334.308,264.000 335.470 C 264.000 343.680,250.105 337.643,242.364 326.069 C 241.284 324.454,240.400 322.878,240.400 322.566 C 240.400 322.255,240.239 322.000,240.043 322.000 C 239.602 322.000,239.458 321.637,237.813 316.400 C 235.640 309.481,235.459 306.970,237.412 310.823 M305.905 325.800 C 306.127 327.500,303.747 330.729,301.901 331.232 C 298.892 332.052,291.812 331.298,292.897 330.274 C 296.732 326.651,305.616 323.596,305.905 325.800 " stroke="none" fill="#04ac04" fill-rule="evenodd"></path><path id="path1" d="M185.600 43.863 C 138.995 47.259,103.970 82.297,95.017 134.481 C 93.061 145.881,92.789 161.879,94.413 169.968 C 97.530 185.487,100.123 193.474,105.580 204.360 C 115.703 224.554,132.194 238.087,152.200 242.619 C 155.701 243.411,156.800 244.072,156.800 245.382 C 156.800 247.303,155.198 247.636,151.083 246.570 C 149.156 246.070,148.438 246.037,147.625 246.408 C 132.875 253.141,110.308 250.010,96.841 239.361 C 88.880 233.066,85.574 223.191,91.082 222.158 C 93.204 221.760,94.400 223.216,94.400 226.199 C 94.400 227.383,94.570 228.458,94.777 228.586 C 95.186 228.838,97.200 225.679,97.200 224.786 C 97.200 224.487,96.705 225.223,96.100 226.421 L 95.000 228.600 94.906 226.800 C 94.400 217.116,89.895 213.194,81.798 215.386 C 72.939 217.784,71.537 233.561,78.837 248.709 C 84.690 260.855,103.829 269.576,124.674 269.597 C 126.475 269.599,128.397 269.771,128.945 269.979 C 129.638 270.242,130.409 270.191,131.471 269.812 C 132.312 269.512,134.890 268.693,137.200 267.993 C 141.791 266.601,147.487 264.286,150.564 262.561 L 152.528 261.460 151.764 262.766 C 148.632 268.118,138.798 277.111,133.144 279.795 C 126.199 283.091,122.916 282.780,112.800 277.870 C 101.904 272.581,94.337 272.417,84.507 277.256 C 63.941 287.381,66.869 312.851,88.591 312.790 L 92.200 312.780 89.767 311.599 C 83.758 308.684,81.849 305.874,82.077 300.281 C 82.536 289.016,89.602 285.672,103.800 289.998 C 113.752 293.029,124.099 295.594,127.400 295.846 C 134.783 296.409,147.085 292.592,155.752 287.048 C 158.517 285.279,158.799 285.334,157.160 287.322 C 156.490 288.135,156.090 288.799,156.271 288.797 C 157.366 288.788,160.787 281.766,163.627 273.700 C 165.420 268.607,165.586 271.408,163.952 279.196 C 160.806 294.192,151.946 306.608,140.372 312.241 C 133.373 315.647,128.003 316.231,116.710 314.814 C 99.621 312.670,89.817 319.710,90.488 333.641 C 91.209 348.626,108.204 355.914,124.000 348.012 C 128.023 346.000,131.600 342.729,131.600 341.062 C 131.600 340.832,131.079 341.465,130.442 342.469 C 124.996 351.057,110.832 350.077,104.489 340.673 C 100.517 334.783,100.848 327.779,105.291 323.766 C 110.918 318.682,117.273 318.748,134.000 324.065 L 140.600 326.162 146.000 326.164 C 151.749 326.165,155.680 325.249,159.171 323.094 C 160.078 322.533,160.437 322.442,160.233 322.824 C 160.064 323.141,161.538 321.742,163.509 319.715 C 174.411 308.504,179.881 294.390,181.461 273.400 C 181.880 267.840,182.318 270.954,182.362 279.800 C 182.444 296.554,179.502 311.951,173.907 324.048 C 166.882 339.235,162.904 343.384,159.057 339.537 L 157.691 338.171 157.896 340.586 C 158.525 347.987,163.004 351.351,170.515 350.063 C 180.321 348.381,186.267 341.480,197.445 318.800 C 200.427 312.750,203.127 307.510,203.445 307.155 C 204.228 306.284,204.770 299.884,204.787 291.324 C 204.802 283.503,205.219 282.265,205.933 287.924 C 207.180 297.814,210.550 310.800,212.361 312.697 C 212.940 313.304,215.655 317.040,218.395 321.000 C 234.282 343.963,244.630 352.326,257.227 352.386 C 265.648 352.425,268.928 348.326,268.736 338.000 L 268.687 335.400 268.440 337.424 C 267.451 345.506,257.726 346.171,247.971 338.823 C 235.007 329.057,230.968 317.374,227.433 279.414 C 226.636 270.862,226.795 270.699,228.614 278.200 C 231.669 290.799,239.512 306.988,246.734 315.600 C 250.995 320.682,256.116 325.515,258.800 326.988 C 259.758 327.514,258.844 326.714,256.200 324.713 C 250.229 320.195,251.926 319.295,263.229 320.985 C 278.330 323.243,283.443 322.423,291.565 316.438 C 303.471 307.665,311.723 307.296,319.609 315.181 C 327.792 323.364,327.484 333.391,318.775 342.351 C 314.742 346.499,306.471 347.293,299.600 344.191 C 298.390 343.644,297.749 343.468,298.176 343.798 C 303.007 347.540,314.431 347.012,322.585 342.670 C 340.700 333.023,335.223 302.422,314.726 298.759 C 309.626 297.848,303.889 299.193,293.100 303.831 C 280.804 309.118,274.229 309.954,268.358 306.979 C 259.895 302.690,249.270 287.211,245.173 273.202 C 243.825 268.593,243.677 268.735,247.031 271.423 C 250.545 274.240,258.189 279.424,261.696 281.369 C 263.179 282.192,264.508 283.051,264.649 283.279 C 264.936 283.744,273.576 287.999,274.200 287.982 C 274.420 287.976,272.530 286.951,270.000 285.702 C 264.130 282.807,264.675 282.708,277.906 284.276 C 303.308 287.284,304.937 286.743,317.185 271.222 C 324.898 261.448,328.954 259.279,335.429 261.466 C 345.826 264.977,348.865 276.124,341.402 283.377 C 338.588 286.112,332.403 288.675,329.449 288.330 C 327.440 288.095,328.050 288.636,330.441 289.210 C 341.698 291.910,353.443 277.315,350.171 264.690 C 347.442 254.156,335.363 245.445,325.766 247.089 C 320.390 248.010,318.562 249.255,310.400 257.562 C 300.027 268.118,297.103 269.808,288.400 270.279 C 278.923 270.791,268.988 267.883,260.241 262.037 L 257.881 260.460 259.564 260.686 C 260.980 260.876,261.342 260.775,261.850 260.050 C 262.672 258.877,264.407 258.045,273.270 254.573 C 294.183 246.380,306.781 236.213,311.772 223.500 C 318.049 207.511,314.321 195.912,302.894 195.876 C 297.723 195.860,291.074 201.903,291.216 206.491 C 291.224 206.771,291.476 206.438,291.775 205.751 C 294.262 200.037,301.780 204.661,301.077 211.472 C 299.630 225.500,276.672 238.606,249.271 241.045 C 246.987 241.249,245.679 241.611,244.168 242.459 C 241.770 243.805,241.161 243.862,240.226 242.829 C 239.055 241.534,239.817 240.588,244.521 237.494 C 270.264 220.567,283.097 192.963,285.012 150.400 C 287.606 92.730,238.416 40.014,185.600 43.863 M300.800 183.153 C 299.347 183.627,296.492 185.128,296.227 185.556 C 296.103 185.758,297.035 185.362,298.300 184.676 C 303.042 182.106,309.823 182.751,315.195 186.281 C 317.147 187.564,317.449 187.688,316.400 186.776 C 312.760 183.609,304.953 181.795,300.800 183.153 M221.360 184.958 C 229.083 188.185,228.831 211.416,221.045 213.985 C 211.534 217.124,208.947 188.619,218.400 184.849 C 219.743 184.314,219.827 184.317,221.360 184.958 M165.010 186.862 C 169.284 190.615,170.707 200.131,168.342 209.141 C 168.251 209.486,169.011 209.976,170.449 210.500 L 172.698 211.319 174.131 210.226 C 178.397 206.972,183.981 207.675,188.318 212.012 C 190.655 214.349,190.434 214.531,187.213 212.925 C 181.407 210.028,176.778 211.639,175.792 216.900 C 175.448 218.738,175.581 218.742,172.628 216.820 C 162.900 210.489,154.374 214.352,154.679 224.953 C 154.888 232.236,166.291 242.074,172.296 240.153 C 175.612 239.092,177.002 236.708,176.994 232.100 C 176.987 228.396,176.983 228.400,179.284 229.853 C 186.215 234.229,189.451 234.195,194.078 229.698 C 195.944 227.885,198.400 223.876,198.400 222.644 C 198.400 222.290,198.601 222.000,198.846 222.000 C 199.475 222.000,198.924 226.040,197.933 228.687 C 195.280 235.778,190.368 239.036,184.800 237.398 C 181.340 236.380,181.409 236.355,179.940 239.164 C 176.315 246.101,168.699 246.550,159.579 240.365 C 149.188 233.318,146.733 220.871,154.242 213.304 L 156.718 210.807 155.918 208.304 C 152.125 196.444,158.581 181.218,165.010 186.862 M293.734 187.746 C 292.284 189.397,290.131 192.800,290.536 192.800 C 290.640 192.800,291.212 191.968,291.808 190.950 C 292.404 189.933,293.522 188.403,294.293 187.550 C 295.063 186.698,295.597 186.000,295.481 186.000 C 295.364 186.000,294.578 186.786,293.734 187.746 M319.200 189.400 C 319.946 190.170,320.647 190.800,320.757 190.800 C 320.867 190.800,320.346 190.170,319.600 189.400 C 318.854 188.630,318.153 188.000,318.043 188.000 C 317.933 188.000,318.454 188.630,319.200 189.400 M322.837 194.000 C 323.996 195.796,324.000 195.801,323.998 195.367 C 323.997 195.165,323.532 194.460,322.965 193.800 L 321.934 192.600 322.837 194.000 M324.816 197.726 C 324.807 197.906,324.992 198.411,325.226 198.848 C 325.460 199.286,325.985 201.119,326.392 202.922 C 326.799 204.725,327.145 205.840,327.160 205.400 C 327.203 204.177,326.069 199.678,325.414 198.472 C 325.094 197.882,324.825 197.547,324.816 197.726 M216.349 202.500 C 216.651 202.885,217.281 203.179,217.749 203.154 C 218.557 203.110,218.560 203.097,217.800 202.911 C 217.360 202.802,216.730 202.508,216.400 202.257 C 215.878 201.860,215.872 201.891,216.349 202.500 M77.276 204.740 C 76.768 204.883,78.264 205.000,80.600 205.000 C 82.936 205.000,84.432 204.883,83.924 204.740 C 83.416 204.597,81.920 204.480,80.600 204.480 C 79.280 204.480,77.784 204.597,77.276 204.740 M92.253 209.577 C 93.941 211.493,95.297 213.750,96.352 216.400 C 96.834 217.610,97.119 218.067,96.985 217.416 C 96.546 215.270,94.629 211.874,92.800 209.999 C 91.810 208.984,91.564 208.795,92.253 209.577 M326.316 215.110 C 325.940 217.058,325.521 219.000,325.386 219.426 C 325.194 220.030,325.225 220.068,325.526 219.600 C 326.046 218.793,327.303 213.017,327.134 212.210 C 327.060 211.857,326.692 213.162,326.316 215.110 M65.204 214.900 C 63.870 217.211,62.508 221.202,62.182 223.756 C 62.066 224.660,62.422 223.716,62.972 221.658 C 63.523 219.599,64.606 216.764,65.379 215.358 C 67.066 212.288,66.925 211.919,65.204 214.900 M165.904 218.851 C 169.539 220.610,173.400 227.122,173.400 231.493 C 173.400 237.463,166.149 239.375,161.430 234.649 C 154.444 227.654,158.019 215.033,165.904 218.851 M97.324 221.800 C 97.326 223.120,97.401 223.612,97.490 222.893 C 97.579 222.174,97.577 221.094,97.486 220.493 C 97.395 219.892,97.322 220.480,97.324 221.800 M323.275 224.219 C 322.070 226.700,322.205 227.047,323.446 224.661 C 324.001 223.594,324.387 222.653,324.303 222.570 C 324.219 222.486,323.757 223.228,323.275 224.219 M61.737 229.400 C 61.739 231.160,61.809 231.830,61.893 230.889 C 61.978 229.949,61.977 228.509,61.891 227.689 C 61.805 226.870,61.736 227.640,61.737 229.400 M315.968 235.700 C 314.784 237.075,314.132 237.948,314.520 237.641 C 315.334 236.994,318.562 233.200,318.297 233.200 C 318.200 233.200,317.151 234.325,315.968 235.700 M62.032 234.400 C 61.955 236.146,64.623 245.111,65.082 244.651 C 65.183 244.551,65.048 244.063,64.783 243.568 C 64.518 243.072,63.796 240.672,63.180 238.234 C 62.563 235.795,62.047 234.070,62.032 234.400 M309.778 242.025 C 309.367 242.478,307.809 243.755,306.316 244.862 C 303.267 247.123,302.579 247.977,305.460 245.925 C 307.507 244.467,311.139 241.241,310.762 241.216 C 310.631 241.207,310.188 241.571,309.778 242.025 M65.200 245.349 C 65.200 245.781,66.789 248.800,67.016 248.800 C 67.126 248.800,66.830 248.035,66.359 247.100 C 65.432 245.261,65.200 244.911,65.200 245.349 M286.200 255.253 C 283.780 256.117,282.430 256.706,283.200 256.561 C 284.579 256.303,290.812 254.122,291.156 253.777 C 291.519 253.414,290.487 253.722,286.200 255.253 M73.400 257.542 C 74.500 258.709,76.120 260.221,77.000 260.901 C 78.852 262.332,78.503 261.967,74.400 258.185 C 71.972 255.946,71.781 255.823,73.400 257.542 M84.000 265.376 C 84.000 265.580,87.548 267.207,87.951 267.188 C 88.314 267.170,87.005 266.445,85.396 265.773 C 84.628 265.452,84.000 265.273,84.000 265.376 M204.951 276.100 C 205.097 278.246,205.060 280.000,204.868 280.000 C 204.512 280.000,203.968 273.629,204.049 270.400 L 204.094 268.600 204.390 270.400 C 204.553 271.390,204.806 273.955,204.951 276.100 M107.900 271.882 C 108.395 271.978,109.205 271.978,109.700 271.882 C 110.195 271.787,109.790 271.709,108.800 271.709 C 107.810 271.709,107.405 271.787,107.900 271.882 M117.505 271.883 C 118.002 271.979,118.722 271.975,119.105 271.875 C 119.487 271.775,119.080 271.696,118.200 271.701 C 117.320 271.705,117.007 271.787,117.505 271.883 M333.768 274.145 C 334.226 275.085,334.656 275.719,334.724 275.554 C 334.873 275.195,333.746 272.937,333.271 272.644 C 333.087 272.530,333.311 273.206,333.768 274.145 M326.328 274.300 C 325.540 275.125,324.688 276.250,324.436 276.800 L 323.977 277.800 324.688 276.804 C 325.080 276.256,326.006 275.131,326.747 274.304 C 328.490 272.357,328.189 272.354,326.328 274.300 M334.901 277.800 C 334.905 278.680,334.987 278.993,335.083 278.495 C 335.179 277.998,335.175 277.278,335.075 276.895 C 334.975 276.513,334.896 276.920,334.901 277.800 M334.049 281.372 C 333.703 282.550,332.745 284.093,331.472 285.524 L 329.445 287.800 331.314 286.026 C 333.211 284.223,334.942 281.217,334.721 280.107 C 334.655 279.771,334.352 280.340,334.049 281.372 M152.575 292.900 L 151.400 294.200 152.700 293.025 C 153.912 291.930,154.184 291.600,153.875 291.600 C 153.806 291.600,153.221 292.185,152.575 292.900 M298.900 293.494 C 299.945 293.576,301.655 293.576,302.700 293.494 C 303.745 293.412,302.890 293.344,300.800 293.344 C 298.710 293.344,297.855 293.412,298.900 293.494 M148.313 297.050 C 145.692 299.345,145.160 299.885,146.234 299.162 C 147.418 298.364,150.961 295.200,150.670 295.200 C 150.536 295.200,149.476 296.033,148.313 297.050 M96.223 301.289 C 95.138 302.838,95.589 305.203,97.079 305.775 C 97.633 305.988,97.594 305.845,96.891 305.096 C 95.849 303.987,95.747 302.540,96.623 301.289 C 96.965 300.800,97.155 300.400,97.045 300.400 C 96.935 300.400,96.565 300.800,96.223 301.289 M108.000 302.000 C 109.210 302.639,110.380 303.162,110.600 303.162 C 110.820 303.162,110.010 302.639,108.800 302.000 C 107.590 301.361,106.420 300.838,106.200 300.838 C 105.980 300.838,106.790 301.361,108.000 302.000 M113.600 304.541 C 113.600 305.879,125.081 307.251,129.637 306.458 C 132.488 305.961,136.564 304.831,136.334 304.600 C 136.254 304.521,134.931 304.832,133.394 305.294 C 128.247 306.838,119.270 306.490,114.215 304.550 C 113.877 304.421,113.600 304.416,113.600 304.541 M211.619 313.077 C 211.594 313.704,213.661 319.273,213.849 319.084 C 213.929 319.005,213.464 317.513,212.817 315.770 C 212.169 314.026,211.630 312.815,211.619 313.077 M304.100 320.276 C 304.485 320.376,305.115 320.376,305.500 320.276 C 305.885 320.175,305.570 320.093,304.800 320.093 C 304.030 320.093,303.715 320.175,304.100 320.276 M214.629 321.600 C 214.776 322.150,215.064 322.870,215.267 323.200 C 215.525 323.617,215.557 323.495,215.371 322.800 C 215.224 322.250,214.936 321.530,214.733 321.200 C 214.475 320.783,214.443 320.905,214.629 321.600 M158.992 323.613 C 158.852 323.840,157.311 324.855,155.568 325.867 C 151.846 328.030,151.313 328.649,154.827 326.727 C 157.152 325.456,160.103 323.250,159.524 323.216 C 159.372 323.207,159.132 323.386,158.992 323.613 M292.000 325.214 C 287.297 327.928,286.824 328.326,290.604 326.389 C 293.382 324.966,296.206 323.183,295.600 323.235 C 295.490 323.244,293.870 324.135,292.000 325.214 M259.600 327.397 C 259.600 327.668,262.849 329.284,263.030 329.103 C 263.114 329.019,262.376 328.559,261.391 328.081 C 260.406 327.602,259.600 327.294,259.600 327.397 M118.905 327.887 C 119.514 327.979,120.414 327.977,120.905 327.882 C 121.397 327.787,120.900 327.711,119.800 327.714 C 118.700 327.717,118.297 327.795,118.905 327.887 M123.107 331.373 C 123.598 331.997,124.021 332.889,124.046 333.354 C 124.082 333.998,124.136 334.038,124.272 333.521 C 124.370 333.147,124.253 332.472,124.011 332.021 C 123.770 331.569,123.665 331.200,123.778 331.200 C 124.337 331.200,127.542 332.630,128.600 333.351 C 129.434 333.919,129.641 333.970,129.280 333.519 C 128.667 332.754,125.430 331.170,124.214 331.040 C 123.748 330.991,123.107 330.790,122.790 330.594 C 122.474 330.398,122.616 330.749,123.107 331.373 M113.206 333.033 C 113.209 333.675,113.384 334.470,113.595 334.800 C 113.855 335.209,113.899 334.890,113.732 333.800 C 113.429 331.823,113.198 331.486,113.206 333.033 M196.165 335.050 C 195.400 336.728,194.578 338.483,194.338 338.950 C 194.046 339.520,194.042 339.668,194.326 339.400 C 194.840 338.915,198.048 332.000,197.759 332.000 C 197.646 332.000,196.929 333.373,196.165 335.050 M307.033 333.163 C 306.653 333.583,305.809 334.148,305.158 334.417 C 304.507 334.687,304.053 334.987,304.150 335.083 C 304.431 335.364,306.532 334.160,307.363 333.241 C 307.782 332.778,308.034 332.400,307.924 332.400 C 307.814 332.400,307.413 332.744,307.033 333.163 M122.925 336.032 C 122.450 336.900,122.229 337.506,122.434 337.379 C 122.877 337.105,124.118 334.784,123.924 334.591 C 123.850 334.516,123.400 335.165,122.925 336.032 M290.400 335.376 C 290.400 335.693,290.608 336.081,290.862 336.238 C 291.162 336.424,291.214 336.347,291.011 336.017 C 290.828 335.722,290.928 335.365,291.249 335.161 C 291.685 334.885,291.654 334.811,291.100 334.806 C 290.715 334.803,290.400 335.059,290.400 335.376 M115.087 336.809 C 115.795 337.551,116.442 338.078,116.525 337.979 C 116.608 337.881,116.029 337.273,115.238 336.629 L 113.800 335.458 115.087 336.809 M295.105 335.883 C 295.602 335.979,296.322 335.975,296.705 335.875 C 297.087 335.775,296.680 335.696,295.800 335.701 C 294.920 335.705,294.607 335.787,295.105 335.883 M269.200 336.073 C 273.097 339.609,273.780 340.152,272.200 338.455 C 271.320 337.510,270.240 336.547,269.800 336.314 C 269.360 336.082,269.090 335.973,269.200 336.073 M291.876 337.912 C 292.267 338.634,293.212 339.804,293.977 340.512 L 295.366 341.800 293.983 340.196 C 293.222 339.314,292.277 338.144,291.883 337.596 C 291.191 336.635,291.190 336.646,291.876 337.912 M223.019 340.700 C 224.489 343.367,227.438 347.600,227.826 347.600 C 227.936 347.600,227.324 346.655,226.467 345.500 C 225.609 344.345,224.238 342.185,223.419 340.700 C 222.601 339.215,221.841 338.000,221.731 338.000 C 221.621 338.000,222.201 339.215,223.019 340.700 M155.454 339.500 C 152.094 346.019,153.404 354.378,158.136 356.614 C 158.831 356.943,159.040 356.984,158.600 356.706 C 153.994 353.794,152.650 347.379,155.289 340.900 C 156.349 338.297,156.431 337.604,155.454 339.500 M274.920 345.200 C 274.920 346.410,274.995 346.905,275.087 346.300 C 275.178 345.695,275.178 344.705,275.087 344.100 C 274.995 343.495,274.920 343.990,274.920 345.200 M187.188 349.500 L 184.600 352.200 187.300 349.612 C 188.785 348.188,190.000 346.973,190.000 346.912 C 190.000 346.617,189.593 346.992,187.188 349.500 M273.053 351.300 L 272.333 352.600 273.158 351.600 C 273.889 350.713,274.214 350.000,273.886 350.000 C 273.824 350.000,273.449 350.585,273.053 351.300 M234.325 353.953 C 235.054 354.584,236.584 355.579,237.725 356.164 C 239.939 357.299,239.754 357.152,235.637 354.503 C 233.808 353.326,233.406 353.158,234.325 353.953 M268.000 356.018 C 267.010 356.660,266.339 357.188,266.508 357.192 C 266.903 357.202,270.000 355.253,270.000 354.995 C 270.000 354.722,270.002 354.721,268.000 356.018 M176.400 356.600 C 175.850 356.914,175.580 357.172,175.800 357.172 C 176.020 357.172,176.650 356.914,177.200 356.600 C 177.750 356.286,178.020 356.028,177.800 356.028 C 177.580 356.028,176.950 356.286,176.400 356.600 M264.400 357.800 C 263.850 358.114,263.580 358.372,263.800 358.372 C 264.020 358.372,264.650 358.114,265.200 357.800 C 265.750 357.486,266.020 357.228,265.800 357.228 C 265.580 357.228,264.950 357.486,264.400 357.800 M253.905 360.283 C 254.402 360.379,255.122 360.375,255.505 360.275 C 255.887 360.175,255.480 360.096,254.600 360.101 C 253.720 360.105,253.407 360.187,253.905 360.283 " stroke="none" fill="#93e30c" fill-rule="evenodd"></path><path id="path2" d="M300.800 183.553 C 292.571 186.242,286.509 197.425,288.996 205.330 C 289.950 208.364,291.200 209.568,291.200 207.453 C 291.200 206.268,292.201 203.630,293.912 200.300 C 293.997 200.135,293.458 200.000,292.713 200.000 C 291.025 200.000,290.400 199.398,290.400 197.774 C 290.400 196.074,291.758 194.398,293.129 194.406 C 295.768 194.421,296.698 197.077,294.879 199.400 C 294.534 199.840,294.914 199.516,295.723 198.681 C 298.820 195.483,303.579 194.895,308.151 197.146 C 313.433 199.746,315.041 203.047,314.687 210.567 C 313.787 229.738,300.425 243.935,273.270 254.573 C 263.759 258.298,260.802 259.820,261.643 260.557 C 262.427 261.243,280.044 257.364,287.200 254.930 C 319.377 243.984,336.711 211.905,321.307 191.810 C 316.381 185.384,306.890 181.562,300.800 183.553 M304.408 188.204 C 306.414 189.242,306.879 190.721,305.600 192.000 C 303.912 193.688,300.400 192.332,300.400 189.994 C 300.400 187.972,302.310 187.119,304.408 188.204 M319.460 195.097 C 320.003 197.259,317.349 199.761,315.437 198.890 C 313.623 198.063,314.084 194.791,316.170 193.695 C 317.329 193.085,319.150 193.862,319.460 195.097 M76.698 205.209 C 65.893 207.939,59.509 223.270,63.110 237.841 C 69.217 262.551,92.770 275.198,124.780 270.957 C 130.904 270.146,131.269 269.790,126.098 269.676 C 102.760 269.162,84.868 261.225,78.837 248.709 C 71.537 233.561,72.939 217.784,81.798 215.386 C 89.895 213.194,94.400 217.116,94.906 226.800 L 95.000 228.600 96.100 226.421 C 101.428 215.869,88.866 202.135,76.698 205.209 M78.946 208.829 C 80.998 210.443,79.625 213.545,77.085 213.037 C 73.646 212.349,73.250 208.000,76.626 208.000 C 77.322 208.000,78.366 208.373,78.946 208.829 M323.920 208.880 C 324.760 209.720,324.490 211.946,323.418 213.018 C 320.850 215.586,317.761 212.337,320.029 209.454 C 320.931 208.307,323.036 207.996,323.920 208.880 M91.200 210.400 C 92.819 212.019,91.926 214.000,89.577 214.000 C 86.291 214.000,86.781 209.906,90.100 209.625 C 90.265 209.611,90.760 209.960,91.200 210.400 M71.321 218.877 C 72.731 220.773,70.212 223.184,68.037 222.020 C 66.926 221.425,66.949 219.718,68.085 218.509 C 69.180 217.344,70.273 217.468,71.321 218.877 M317.669 225.062 C 319.449 226.673,317.951 230.000,315.446 230.000 C 312.898 230.000,311.990 227.200,313.867 225.126 C 314.687 224.219,316.700 224.185,317.669 225.062 M70.208 234.665 C 70.950 235.408,70.755 237.527,69.894 238.074 C 68.442 238.996,66.000 237.976,66.000 236.447 C 66.000 234.527,68.859 233.316,70.208 234.665 M306.036 239.548 C 307.996 241.136,306.746 244.800,304.245 244.800 C 301.678 244.800,300.654 241.710,302.582 239.782 C 303.757 238.607,304.787 238.537,306.036 239.548 M74.971 249.029 C 76.380 250.437,75.310 252.806,73.271 252.794 C 71.378 252.783,70.444 251.424,71.261 249.871 C 72.103 248.271,73.823 247.880,74.971 249.029 M327.000 261.750 C 324.110 263.111,321.910 265.234,317.185 271.222 C 304.937 286.743,303.308 287.284,277.906 284.276 C 264.397 282.676,264.032 282.768,270.819 286.072 C 288.976 294.912,310.863 295.740,318.505 287.876 C 319.780 286.565,320.821 284.768,322.407 281.144 C 325.638 273.762,329.200 270.545,332.344 272.171 C 337.273 274.720,335.027 284.803,328.820 287.993 L 327.400 288.722 329.400 288.522 C 343.336 287.122,350.473 274.125,341.962 265.644 C 337.401 261.099,331.592 259.587,327.000 261.750 M332.391 264.589 C 333.873 266.375,332.442 269.600,330.167 269.600 C 327.785 269.600,326.927 267.661,328.210 265.180 C 328.905 263.836,331.466 263.474,332.391 264.589 M340.571 269.429 C 342.054 270.912,341.101 273.200,339.000 273.200 C 337.470 273.200,336.800 272.574,336.800 271.143 C 336.800 269.239,339.263 268.120,340.571 269.429 M321.669 273.462 C 323.130 274.785,322.073 277.206,320.038 277.194 C 317.901 277.181,317.104 275.538,318.422 273.863 C 319.376 272.650,320.604 272.498,321.669 273.462 M339.923 281.501 C 340.061 283.405,338.949 284.254,336.969 283.756 C 334.498 283.136,335.719 279.461,338.324 279.677 C 339.752 279.796,339.804 279.855,339.923 281.501 M310.311 285.823 C 312.332 287.238,311.130 289.740,308.531 289.526 C 305.789 289.299,306.379 285.566,309.211 285.225 C 309.327 285.211,309.822 285.480,310.311 285.823 M156.000 286.877 C 153.266 288.723,145.014 292.575,141.254 293.761 C 130.630 297.111,125.436 296.589,103.800 289.998 C 89.602 285.672,82.536 289.016,82.077 300.281 C 81.885 304.992,82.272 305.963,85.462 308.771 C 90.436 313.149,94.291 313.313,99.700 309.376 C 102.109 307.622,102.083 307.397,99.384 306.613 C 95.991 305.626,94.798 303.846,96.012 301.578 C 97.620 298.573,102.810 298.982,110.200 302.698 C 127.092 311.191,143.460 305.522,158.121 286.100 C 158.738 285.282,157.917 285.583,156.000 286.877 M291.920 287.680 C 293.203 288.963,291.924 291.600,290.018 291.600 C 288.694 291.600,288.000 290.929,288.000 289.651 C 288.000 287.682,290.610 286.370,291.920 287.680 M95.520 294.480 C 96.797 295.757,95.524 298.405,93.638 298.394 C 92.153 298.385,91.500 297.847,91.500 296.632 C 91.500 294.565,94.173 293.133,95.520 294.480 M109.353 294.516 C 110.813 295.584,110.078 298.177,108.272 298.326 C 105.662 298.541,104.728 296.779,106.470 294.926 C 107.450 293.882,108.317 293.759,109.353 294.516 M135.811 299.612 C 137.422 301.393,134.935 303.937,132.616 302.880 C 131.436 302.342,131.275 301.041,132.223 299.689 C 133.015 298.558,134.822 298.520,135.811 299.612 M122.971 299.829 C 124.386 301.243,123.311 303.600,121.251 303.600 C 119.896 303.600,119.200 302.939,119.200 301.651 C 119.200 299.590,121.582 298.439,122.971 299.829 M93.598 304.259 C 94.888 305.345,94.999 306.597,93.919 307.898 C 92.765 309.288,88.800 307.592,88.800 305.708 C 88.800 303.263,91.459 302.460,93.598 304.259 M203.285 307.300 C 203.057 307.575,200.430 312.750,197.447 318.800 C 186.261 341.485,180.320 348.382,170.515 350.063 C 165.885 350.857,159.982 348.851,159.262 346.239 C 159.061 345.510,159.002 345.556,158.814 346.585 C 158.326 349.252,154.400 349.476,154.400 346.837 C 154.400 344.847,156.949 343.509,158.253 344.813 C 158.538 345.098,158.563 344.631,158.335 343.313 C 158.152 342.261,157.901 340.545,157.777 339.500 C 157.413 336.437,156.123 337.783,154.644 342.773 C 149.583 359.844,171.145 364.629,186.672 349.880 C 193.255 343.626,200.640 327.828,202.790 315.400 C 204.164 307.453,204.244 306.139,203.285 307.300 M301.665 310.594 C 298.602 311.665,296.000 313.170,291.565 316.438 C 283.443 322.423,278.330 323.243,263.229 320.985 C 251.634 319.251,250.107 320.249,256.800 325.188 C 267.305 332.940,277.981 333.182,290.701 325.957 C 304.224 318.275,310.400 318.224,310.400 325.795 C 310.400 333.446,303.267 337.509,293.190 335.598 C 290.491 335.086,290.440 335.168,291.971 337.554 C 297.692 346.470,312.240 349.073,318.775 342.351 C 327.484 333.391,327.792 323.364,319.609 315.181 C 314.370 309.943,308.108 308.342,301.665 310.594 M212.362 314.470 C 222.776 344.482,231.356 355.878,246.220 359.441 C 264.755 363.883,282.744 348.452,271.273 337.950 L 269.000 335.869 268.900 337.835 C 268.323 349.129,265.678 352.426,257.227 352.386 C 244.504 352.326,234.524 344.196,217.999 320.433 C 212.206 312.103,211.154 310.989,212.362 314.470 M304.469 314.262 C 306.253 315.877,305.082 319.249,302.713 319.316 C 300.837 319.369,300.000 318.634,300.000 316.933 C 300.000 314.368,302.762 312.717,304.469 314.262 M318.577 320.489 C 320.036 322.572,318.762 325.205,316.300 325.194 C 314.319 325.185,313.806 324.670,313.857 322.742 C 313.931 319.910,317.109 318.393,318.577 320.489 M111.172 320.520 C 94.520 325.253,101.508 348.364,119.600 348.395 C 125.267 348.405,131.591 343.520,131.718 339.036 C 131.809 335.822,129.829 333.550,125.341 331.719 L 123.282 330.879 123.929 332.006 C 124.860 333.627,123.615 336.674,121.593 337.722 C 116.162 340.538,110.577 333.885,114.815 329.647 C 117.380 327.081,119.669 327.064,127.905 329.551 C 139.535 333.062,150.633 330.829,159.600 323.175 L 160.600 322.321 159.200 323.130 C 152.684 326.898,144.141 327.305,134.764 324.293 C 122.121 320.233,115.762 319.216,111.172 320.520 M282.577 324.089 C 283.824 325.869,282.887 328.702,281.000 328.860 C 279.021 329.025,278.473 328.784,278.046 327.561 C 277.012 324.593,280.863 321.642,282.577 324.089 M127.269 324.262 C 128.099 325.014,128.237 326.803,127.520 327.520 C 126.572 328.468,124.023 328.114,123.590 326.974 C 122.719 324.684,125.483 322.646,127.269 324.262 M112.386 326.774 C 113.000 327.922,112.893 328.707,112.000 329.600 C 110.590 331.010,108.658 330.569,108.197 328.731 C 107.658 326.585,111.359 324.856,112.386 326.774 M197.371 327.429 C 199.276 329.333,196.460 332.116,193.974 330.786 C 193.014 330.272,192.954 328.535,193.862 327.531 C 194.674 326.634,196.523 326.580,197.371 327.429 M316.341 333.747 C 317.065 335.264,316.513 337.194,315.133 337.968 C 312.660 339.356,310.912 335.891,312.846 333.432 C 313.972 332.001,315.577 332.146,316.341 333.747 M114.666 339.586 C 115.705 341.661,113.336 343.923,111.310 342.790 C 109.791 341.941,108.868 340.219,109.439 339.303 C 110.639 337.382,113.643 337.545,114.666 339.586 M305.911 338.623 C 307.632 339.828,306.506 342.400,304.257 342.400 C 301.998 342.400,301.192 340.408,302.800 338.800 C 303.761 337.839,304.714 337.785,305.911 338.623 M125.100 339.196 C 127.342 340.563,126.601 343.600,124.025 343.600 C 122.416 343.600,120.800 342.197,120.800 340.800 C 120.800 338.494,122.754 337.765,125.100 339.196 M231.298 341.056 C 232.055 342.717,231.141 344.000,229.200 344.000 C 227.264 344.000,226.364 342.762,227.185 341.228 C 228.122 339.477,230.533 339.376,231.298 341.056 M190.167 340.643 C 191.131 341.012,191.024 343.852,190.026 344.386 C 187.523 345.726,185.206 343.182,187.062 341.131 C 187.729 340.394,188.999 340.194,190.167 340.643 M272.400 345.600 C 274.088 347.288,273.037 349.329,270.584 349.129 C 269.111 349.009,268.991 348.906,268.872 347.663 C 268.637 345.210,270.765 343.965,272.400 345.600 M178.380 350.576 C 179.823 352.314,177.535 355.046,175.437 354.090 C 174.222 353.536,174.000 351.657,175.029 350.629 C 175.815 349.842,177.746 349.812,178.380 350.576 M164.025 352.025 C 165.770 353.770,163.442 356.787,161.282 355.578 C 159.902 354.807,159.736 353.643,160.811 352.277 C 161.824 350.989,162.904 350.904,164.025 352.025 M243.920 351.680 C 245.135 352.895,244.048 355.600,242.345 355.600 C 240.192 355.600,239.357 353.897,240.623 352.089 C 241.309 351.110,243.124 350.884,243.920 351.680 M257.120 354.480 C 257.902 355.262,257.713 357.511,256.826 357.986 C 255.571 358.658,254.093 358.468,253.453 357.554 C 252.036 355.532,255.374 352.734,257.120 354.480 " stroke="none" fill="#a4f44c" fill-rule="evenodd"></path><path id="path3" d="M301.289 188.223 C 299.301 189.615,300.947 192.800,303.654 192.800 C 304.783 192.800,306.400 191.607,306.400 190.774 C 306.400 188.604,303.098 186.956,301.289 188.223 M157.935 193.053 C 156.287 196.780,157.433 202.486,159.878 202.724 C 161.683 202.899,162.473 201.538,162.710 197.843 C 163.092 191.882,159.879 188.658,157.935 193.053 M216.006 192.487 C 213.695 196.286,214.967 202.800,218.019 202.800 C 219.458 202.800,220.275 201.406,220.635 198.334 C 221.265 192.963,218.127 188.999,216.006 192.487 M316.170 193.695 C 314.084 194.791,313.623 198.063,315.437 198.890 C 317.349 199.761,320.003 197.259,319.460 195.097 C 319.150 193.862,317.329 193.085,316.170 193.695 M291.229 195.454 C 290.315 196.615,290.130 198.770,290.880 199.520 C 292.229 200.869,295.142 199.795,295.775 197.715 C 296.598 195.011,292.989 193.216,291.229 195.454 M74.880 208.480 C 74.154 209.206,74.301 211.386,75.126 212.133 C 77.058 213.881,80.000 212.973,80.000 210.629 C 80.000 208.699,76.240 207.120,74.880 208.480 M320.029 209.454 C 317.761 212.337,320.850 215.586,323.418 213.018 C 324.490 211.946,324.760 209.720,323.920 208.880 C 323.036 207.996,320.931 208.307,320.029 209.454 M88.926 210.003 C 86.423 211.011,86.910 214.000,89.577 214.000 C 91.926 214.000,92.819 212.019,91.200 210.400 C 90.317 209.517,90.189 209.494,88.926 210.003 M68.085 218.509 C 66.949 219.718,66.926 221.425,68.037 222.020 C 70.212 223.184,72.731 220.773,71.321 218.877 C 70.273 217.468,69.180 217.344,68.085 218.509 M313.867 225.126 C 311.990 227.200,312.898 230.000,315.446 230.000 C 317.951 230.000,319.449 226.673,317.669 225.062 C 316.700 224.185,314.687 224.219,313.867 225.126 M66.816 234.875 C 65.345 236.454,66.184 238.406,68.329 238.394 C 69.815 238.385,70.349 237.957,70.631 236.546 C 71.092 234.241,68.475 233.095,66.816 234.875 M302.582 239.782 C 299.881 242.482,303.084 246.442,306.036 244.052 C 307.952 242.499,306.756 238.800,304.338 238.800 C 303.912 238.800,303.122 239.242,302.582 239.782 M72.160 248.706 C 71.383 249.225,70.795 250.720,71.072 251.471 C 71.907 253.731,75.600 253.020,75.600 250.600 C 75.600 248.909,73.548 247.779,72.160 248.706 M328.210 265.180 C 326.927 267.661,327.785 269.600,330.167 269.600 C 332.442 269.600,333.873 266.375,332.391 264.589 C 331.466 263.474,328.905 263.836,328.210 265.180 M337.689 269.423 C 335.878 270.691,336.749 273.200,339.000 273.200 C 340.529 273.200,341.200 272.574,341.200 271.149 C 341.200 269.081,339.423 268.208,337.689 269.423 M318.422 273.863 C 317.104 275.538,317.901 277.181,320.038 277.194 C 322.073 277.206,323.130 274.785,321.669 273.462 C 320.604 272.498,319.376 272.650,318.422 273.863 M336.180 280.574 C 334.802 282.677,336.533 284.538,338.995 283.602 C 339.934 283.245,340.033 283.021,339.923 281.501 C 339.764 279.308,337.394 278.722,336.180 280.574 M308.112 285.608 C 306.071 286.429,306.384 289.349,308.531 289.526 C 311.130 289.740,312.332 287.238,310.311 285.823 C 309.307 285.119,309.323 285.121,308.112 285.608 M288.662 287.931 C 287.271 289.468,288.059 291.600,290.018 291.600 C 291.924 291.600,293.203 288.963,291.920 287.680 C 291.203 286.963,289.414 287.101,288.662 287.931 M92.212 294.787 C 91.366 295.721,91.275 297.549,92.050 298.039 C 93.707 299.089,96.000 297.875,96.000 295.949 C 96.000 293.987,93.601 293.252,92.212 294.787 M106.470 294.926 C 104.728 296.779,105.662 298.541,108.272 298.326 C 109.739 298.205,109.805 298.136,109.929 296.616 C 110.135 294.094,108.158 293.128,106.470 294.926 M132.223 299.689 C 131.275 301.041,131.436 302.342,132.616 302.880 C 134.935 303.937,137.422 301.393,135.811 299.612 C 134.822 298.520,133.015 298.558,132.223 299.689 M119.862 299.931 C 119.088 300.787,118.994 302.434,119.680 303.120 C 120.953 304.393,123.600 303.232,123.600 301.400 C 123.600 299.418,121.186 298.469,119.862 299.931 M89.423 304.089 C 88.529 305.366,88.651 306.300,89.858 307.419 C 91.755 309.177,94.016 308.670,94.596 306.357 C 95.172 304.064,90.787 302.141,89.423 304.089 M300.982 314.582 C 298.940 316.624,299.953 319.394,302.713 319.316 C 304.461 319.266,305.200 318.395,305.200 316.386 C 305.200 313.728,302.843 312.720,300.982 314.582 M314.795 320.324 C 313.707 321.205,313.447 324.206,314.406 324.812 C 316.311 326.017,319.200 324.617,319.200 322.489 C 319.200 319.925,316.765 318.728,314.795 320.324 M279.113 323.900 C 277.863 325.333,277.593 326.260,278.046 327.561 C 278.961 330.186,283.200 328.939,283.200 326.045 C 283.200 323.614,280.568 322.233,279.113 323.900 M124.705 324.029 C 122.531 325.296,123.079 328.000,125.510 328.000 C 127.308 328.000,128.000 327.439,128.000 325.982 C 128.000 324.150,126.264 323.121,124.705 324.029 M108.765 326.835 C 107.884 327.716,107.974 329.481,108.932 330.090 C 110.274 330.943,112.800 329.692,112.800 328.174 C 112.800 326.039,110.368 325.232,108.765 326.835 M193.862 327.531 C 192.414 329.131,193.379 331.200,195.574 331.200 C 196.614 331.200,198.000 329.845,198.000 328.829 C 198.000 326.970,195.172 326.084,193.862 327.531 M312.846 333.432 C 310.912 335.891,312.660 339.356,315.133 337.968 C 316.513 337.194,317.065 335.264,316.341 333.747 C 315.577 332.146,313.972 332.001,312.846 333.432 M110.810 338.128 C 108.639 339.229,108.874 341.428,111.310 342.790 C 113.336 343.923,115.705 341.661,114.666 339.586 C 114.005 338.268,112.017 337.516,110.810 338.128 M302.800 338.800 C 301.192 340.408,301.998 342.400,304.257 342.400 C 306.506 342.400,307.632 339.828,305.911 338.623 C 304.714 337.785,303.761 337.839,302.800 338.800 M121.429 339.029 C 120.437 340.020,120.642 341.817,121.854 342.771 C 123.915 344.392,126.400 343.514,126.400 341.166 C 126.400 339.104,122.870 337.587,121.429 339.029 M228.511 340.037 C 227.241 340.507,226.619 341.884,227.150 343.051 C 227.795 344.465,230.621 344.430,231.273 343.000 C 232.159 341.056,230.517 339.295,228.511 340.037 M187.062 341.131 C 185.206 343.182,187.523 345.726,190.026 344.386 C 191.024 343.852,191.131 341.012,190.167 340.643 C 188.999 340.194,187.729 340.394,187.062 341.131 M155.029 345.029 C 154.000 346.057,154.222 347.936,155.437 348.490 C 157.535 349.446,159.823 346.714,158.380 344.976 C 157.746 344.212,155.815 344.242,155.029 345.029 M269.434 345.563 C 268.096 347.040,268.721 348.977,270.584 349.129 C 273.037 349.329,274.088 347.288,272.400 345.600 C 271.394 344.594,270.323 344.580,269.434 345.563 M175.029 350.629 C 174.000 351.657,174.222 353.536,175.437 354.090 C 177.535 355.046,179.823 352.314,178.380 350.576 C 177.746 349.812,175.815 349.842,175.029 350.629 M160.811 352.277 C 159.736 353.643,159.902 354.807,161.282 355.578 C 163.442 356.787,165.770 353.770,164.025 352.025 C 162.904 350.904,161.824 350.989,160.811 352.277 M240.623 352.089 C 239.357 353.897,240.192 355.600,242.345 355.600 C 244.048 355.600,245.135 352.895,243.920 351.680 C 243.124 350.884,241.309 351.110,240.623 352.089 M253.923 354.700 C 251.927 357.023,254.078 359.457,256.826 357.986 C 257.713 357.511,257.902 355.262,257.120 354.480 C 256.413 353.773,254.613 353.896,253.923 354.700 " stroke="none" fill="#cafbb5" fill-rule="evenodd"></path><path id="path4" d="M217.514 185.422 C 213.862 187.404,211.466 197.382,212.957 204.400 C 214.807 213.109,219.320 216.436,223.275 212.006 C 230.633 203.763,225.695 180.981,217.514 185.422 M160.566 186.178 C 155.903 188.172,153.468 201.044,156.281 208.823 L 157.086 211.047 155.743 211.927 C 150.677 215.248,148.759 225.113,151.893 231.730 C 155.029 238.351,164.276 244.400,171.261 244.400 C 176.014 244.400,179.080 241.963,180.920 236.723 C 181.141 236.093,181.314 236.101,183.369 236.823 C 190.694 239.397,197.854 233.851,198.656 224.982 L 198.872 222.600 197.637 225.134 C 193.431 233.764,187.262 235.385,179.328 229.946 C 176.943 228.312,176.850 228.392,177.069 231.900 C 177.592 240.289,171.791 242.657,163.152 237.582 C 154.821 232.687,151.997 224.084,156.505 217.337 C 159.789 212.423,166.337 212.242,173.103 216.876 C 175.068 218.222,175.411 218.135,175.774 216.196 C 176.656 211.499,181.883 209.984,187.474 212.804 C 190.399 214.279,190.469 214.149,187.999 211.838 C 183.491 207.621,177.746 207.127,173.991 210.633 L 172.982 211.575 170.591 210.716 C 169.276 210.243,168.151 209.825,168.091 209.786 C 168.031 209.747,168.254 208.565,168.585 207.158 C 171.198 196.072,166.454 183.661,160.566 186.178 M161.528 191.724 C 164.196 194.564,163.056 203.200,160.013 203.200 C 158.176 203.200,157.104 200.900,157.106 196.960 C 157.109 192.025,159.335 189.389,161.528 191.724 M219.673 192.100 C 220.994 193.953,221.047 200.139,219.757 201.869 C 217.744 204.569,215.154 202.626,214.873 198.204 C 214.491 192.211,217.250 188.703,219.673 192.100 M160.285 219.204 C 155.267 223.152,158.700 234.924,165.418 236.805 C 172.150 238.690,175.309 233.040,171.600 225.746 C 168.307 219.270,163.635 216.569,160.285 219.204 " stroke="none" fill="#070806" fill-rule="evenodd"></path></g></svg>